<?xml version="1.0" encoding="UTF-8"?>
<svg xmlns="http://www.w3.org/2000/svg" xmlns:xlink="http://www.w3.org/1999/xlink" width="194pt" height="194pt" viewBox="0 0 194 194" version="1.1">
<g id="surface1">
<path style=" stroke:none;fill-rule:evenodd;fill:rgb(100%,100%,100%);fill-opacity:1;" d="M 0.257813 0.675781 L 193.015625 0.675781 L 193.015625 193.433594 L 0.257813 193.433594 L 0.257813 0.675781 "/>
<path style=" stroke:none;fill-rule:evenodd;fill:rgb(13.699341%,12.199402%,12.5%);fill-opacity:1;" d="M 50.878906 102.488281 L 52.109375 102.753906 L 47.792969 116.433594 L 8.761719 116.433594 L 8.761719 115.0625 L 10.667969 115.0625 C 12.796875 115.0625 14.320313 114.363281 15.234375 112.980469 C 15.753906 112.183594 16.007813 110.339844 16.007813 107.472656 L 16.007813 74.941406 C 16.007813 71.792969 15.664063 69.828125 14.96875 69.039063 C 14.003906 67.949219 12.570313 67.402344 10.667969 67.402344 L 8.761719 67.402344 L 8.761719 66.019531 L 31.589844 66.019531 L 31.589844 67.402344 C 28.914063 67.378906 27.035156 67.617188 25.957031 68.140625 C 24.878906 68.660156 24.144531 69.320313 23.75 70.117188 C 23.355469 70.90625 23.152344 72.808594 23.152344 75.804688 L 23.152344 107.472656 C 23.152344 109.53125 23.355469 110.9375 23.75 111.710938 C 24.039063 112.234375 24.496094 112.613281 25.121094 112.867188 C 25.742188 113.109375 27.667969 113.234375 30.917969 113.234375 L 34.597656 113.234375 C 38.46875 113.234375 41.183594 112.957031 42.742188 112.386719 C 44.304688 111.8125 45.726563 110.796875 47.019531 109.351563 C 48.300781 107.90625 49.59375 105.609375 50.878906 102.488281 "/>
<path style=" stroke:none;fill-rule:evenodd;fill:rgb(13.699341%,12.199402%,12.5%);fill-opacity:1;" d="M 56.890625 93.023438 L 41.699219 93.023438 L 39.042969 99.214844 C 38.378906 100.738281 38.054688 101.875 38.054688 102.632813 C 38.054688 103.226563 38.339844 103.75 38.902344 104.207031 C 39.476563 104.660156 40.699219 104.957031 42.597656 105.09375 L 42.597656 106.160156 L 30.238281 106.160156 L 30.238281 105.09375 C 31.878906 104.796875 32.9375 104.421875 33.421875 103.957031 C 34.410156 103.039063 35.496094 101.152344 36.691406 98.316406 L 50.5 66.027344 L 51.507813 66.027344 L 65.167969 98.664063 C 66.265625 101.289063 67.261719 102.988281 68.160156 103.769531 C 69.0625 104.550781 70.316406 104.996094 71.914063 105.09375 L 71.914063 106.160156 L 56.425781 106.160156 L 56.425781 105.09375 C 57.988281 105.015625 59.042969 104.746094 59.597656 104.304688 C 60.152344 103.867188 60.425781 103.324219 60.425781 102.683594 C 60.425781 101.835938 60.03125 100.5 59.261719 98.664063 Z M 56.082031 90.878906 L 49.421875 75.023438 L 42.597656 90.878906 L 56.082031 90.878906 "/>
<path style=" stroke:none;fill-rule:evenodd;fill:rgb(13.699341%,12.199402%,12.5%);fill-opacity:1;" d="M 104.738281 65.683594 L 105.300781 77.605469 L 103.867188 77.605469 C 103.601563 75.507813 103.230469 74.011719 102.742188 73.105469 C 101.976563 71.65625 100.9375 70.597656 99.660156 69.90625 C 98.367188 69.214844 96.679688 68.871094 94.582031 68.871094 L 87.421875 68.871094 L 87.421875 107.703125 C 87.421875 110.824219 87.765625 112.765625 88.429688 113.546875 C 89.378906 114.597656 90.847656 115.121094 92.816406 115.121094 L 94.582031 115.121094 L 94.582031 116.503906 L 73.03125 116.503906 L 73.03125 115.121094 L 74.835938 115.121094 C 76.984375 115.121094 78.503906 114.46875 79.402344 113.164063 C 79.949219 112.371094 80.230469 110.542969 80.230469 107.703125 L 80.230469 68.871094 L 74.117188 68.871094 C 71.75 68.871094 70.0625 69.050781 69.066406 69.394531 C 67.761719 69.867188 66.648438 70.789063 65.726563 72.132813 C 64.804688 73.488281 64.257813 75.304688 64.078125 77.605469 L 62.65625 77.605469 L 63.257813 65.683594 L 104.738281 65.683594 "/>
<path style=" stroke:none;fill-rule:evenodd;fill:rgb(13.699341%,12.199402%,12.5%);fill-opacity:1;" d="M 110.90625 82.351563 L 110.90625 101.609375 L 121.617188 101.609375 C 124.398438 101.609375 126.253906 101.191406 127.183594 100.359375 C 128.4375 99.253906 129.121094 97.316406 129.269531 94.53125 L 130.59375 94.53125 L 130.59375 111.496094 L 129.269531 111.496094 C 128.9375 109.128906 128.59375 107.609375 128.265625 106.933594 C 127.835938 106.101563 127.121094 105.4375 126.140625 104.960938 C 125.160156 104.480469 123.652344 104.234375 121.617188 104.234375 L 110.90625 104.234375 L 110.90625 120.304688 C 110.90625 122.464844 111.003906 123.777344 111.1875 124.242188 C 111.386719 124.707031 111.714844 125.078125 112.195313 125.359375 C 112.671875 125.628906 113.59375 125.761719 114.929688 125.761719 L 123.199219 125.761719 C 125.945313 125.761719 127.957031 125.578125 129.195313 125.1875 C 130.445313 124.804688 131.636719 124.058594 132.789063 122.929688 C 134.273438 121.445313 135.796875 119.199219 137.351563 116.207031 L 138.789063 116.207031 L 134.59375 128.425781 L 97.035156 128.425781 L 97.035156 127.101563 L 98.761719 127.101563 C 99.902344 127.101563 100.996094 126.816406 102.027344 126.265625 C 102.800781 125.886719 103.3125 125.308594 103.597656 124.546875 C 103.867188 123.777344 104 122.207031 104 119.839844 L 104 88.179688 C 104 85.085938 103.695313 83.1875 103.070313 82.460938 C 102.210938 81.503906 100.773438 81.027344 98.761719 81.027344 L 97.035156 81.027344 L 97.035156 79.691406 L 134.59375 79.691406 L 135.132813 90.363281 L 133.722656 90.363281 C 133.21875 87.796875 132.667969 86.042969 132.054688 85.085938 C 131.441406 84.128906 130.546875 83.394531 129.34375 82.890625 C 128.386719 82.535156 126.695313 82.351563 124.277344 82.351563 L 110.90625 82.351563 "/>
<path style=" stroke:none;fill-rule:evenodd;fill:rgb(13.699341%,12.199402%,12.5%);fill-opacity:1;" d="M 161.476563 88.386719 L 172.308594 104.527344 C 175.304688 108.996094 177.527344 111.816406 178.988281 112.996094 C 180.4375 114.175781 182.277344 114.824219 184.511719 114.953125 L 184.511719 116.324219 L 162.859375 116.324219 L 162.859375 114.953125 C 164.296875 114.925781 165.363281 114.773438 166.0625 114.496094 C 166.582031 114.277344 167 113.9375 167.34375 113.480469 C 167.671875 113.023438 167.839844 112.550781 167.839844 112.082031 C 167.839844 111.511719 167.722656 110.9375 167.507813 110.367188 C 167.328125 109.949219 166.644531 108.855469 165.464844 107.09375 L 156.90625 94.152344 L 146.339844 107.6875 C 145.222656 109.136719 144.550781 110.089844 144.335938 110.570313 C 144.105469 111.054688 143.992188 111.5625 143.992188 112.082031 C 143.992188 112.882813 144.335938 113.53125 144.992188 114.050781 C 145.664063 114.570313 146.949219 114.875 148.828125 114.953125 L 148.828125 116.324219 L 130.9375 116.324219 L 130.9375 114.953125 C 132.207031 114.824219 133.285156 114.558594 134.214844 114.164063 C 135.75 113.515625 137.210938 112.652344 138.59375 111.5625 C 139.992188 110.46875 141.578125 108.792969 143.355469 106.53125 L 155.265625 91.511719 L 145.335938 76.957031 C 142.632813 73.019531 140.332031 70.429688 138.453125 69.210938 C 136.5625 67.980469 134.390625 67.332031 131.9375 67.257813 L 131.9375 65.871094 L 155.265625 65.871094 L 155.265625 67.257813 C 153.285156 67.332031 151.925781 67.648438 151.191406 68.222656 C 150.46875 68.792969 150.097656 69.425781 150.097656 70.113281 C 150.097656 71.039063 150.695313 72.371094 151.878906 74.136719 L 159.621094 85.707031 L 168.589844 74.355469 C 169.628906 73.019531 170.265625 72.105469 170.503906 71.613281 C 170.734375 71.105469 170.859375 70.597656 170.859375 70.074219 C 170.859375 69.554688 170.707031 69.097656 170.402344 68.703125 C 170.035156 68.183594 169.566406 67.8125 168.992188 67.613281 C 168.421875 67.394531 167.242188 67.28125 165.464844 67.257813 L 165.464844 65.871094 L 183.355469 65.871094 L 183.355469 67.257813 C 181.945313 67.332031 180.789063 67.546875 179.890625 67.914063 C 178.554688 68.488281 177.324219 69.261719 176.207031 70.226563 C 175.089844 71.191406 173.515625 72.984375 171.484375 75.585938 L 161.476563 88.386719 "/>
</g>
</svg>
